<?xml version="1.0" encoding="UTF-8"?>
<svg width="24" height="24" viewBox="0 0 24 24" fill="none" xmlns="http://www.w3.org/2000/svg">
<path d="M12 2C13.1 2 14 2.9 14 4C14 5.1 13.1 6 12 6C10.9 6 10 5.1 10 4C10 2.9 10.9 2 12 2ZM21 9V7L15 1L13.5 2.5L16.17 5.17L10.5 10.84L11.91 12.25L15.83 8.33L17.91 10.41L19.5 11.91L21 9ZM3.5 5.75L9.81 12.06L8.39 13.47L7.76 12.84L5.15 15.45L6.56 16.86L4.5 18.92L2.08 16.5L4.14 14.44L5.55 15.85L8.16 13.24L7.53 12.61L13.84 6.3L12.42 4.88L6.11 11.19L4.69 9.77L3.5 5.75Z" fill="currentColor"/>
</svg>
